PathFileType	4	(X/Y/Z)	Walk1_0-155.trc
DataRate	CameraRate	NumFrames	NumMarkers	Units	OrigDataRate	OrigDataStartFrame	OrigNumFrames
30	30	5	22	m	30	135	155
Frame#	Time	Hip			RHip			RKnee			RAnkle			RBigToe			RSmallToe			RHeel			LHip			LKnee			LAnkle			LBigToe			LSmallToe			LHeel			Neck			Head			Nose			RShoulder			RElbow			RWrist			LShoulder			LElbow			LWrist		
		X1	Y1	Z1	X2	Y2	Z2	X3	Y3	Z3	X4	Y4	Z4	X5	Y5	Z5	X6	Y6	Z6	X7	Y7	Z7	X8	Y8	Z8	X9	Y9	Z9	X10	Y10	Z10	X11	Y11	Z11	X12	Y12	Z12	X13	Y13	Z13	X14	Y14	Z14	X15	Y15	Z15	X16	Y16	Z16	X17	Y17	Z17	X18	Y18	Z18	X19	Y19	Z19	X20	Y20	Z20	X21	Y21	Z21	X22	Y22	Z22
136	4.533333333333333	1.7411864850113021	0.8945559682967245	0.3758551132533793	1.7693356744108533	0.8712913522817561	0.4819425694136864	1.930199246347489	0.5365522490057437	0.4841808927850172	1.9064742824849807	0.165403502491856	0.4754004891657053	2.1172192598539343	0.07691981725796498	0.48059629791953046	2.0697892153299224	0.073564878341295	0.5267438793255754	1.8852607525921548	0.08322428695201169	0.4529124042828474	1.7104921940311026	0.8685992960354919	0.28397562652266406	1.6770925169128472	0.5055007566628725	0.3061889561256368	1.6282404593913384	0.10987204389988385	0.32964968459925054	1.8177359619880376	0.036869743177288826	0.3100122476529781	1.7729070832557778	0.02075824042130902	0.2528557539509732	1.575536923099325	0.02699081511725404	0.3375351633393675	1.6506894096207407	1.5974684041293552	0.360539484640907	1.7140714110601993	1.8468033015759076	0.37646707057122086	1.8428807928106907	1.6778766863009014	0.34849862747668464	1.618312770103987	1.4678594778890386	0.5483159574848809	1.61256911710629	1.1620776842585276	0.6092498852020809	1.6266664330815601	0.9048541571512757	0.6530236643357847	1.6711915702579654	1.4788230841146992	0.20491030880350472	1.7713359706739182	1.1824464414832094	0.1276685528062563	1.9852491833081585	1.0077305570006738	0.13755381048766707
137	4.566666666666666	1.774635702479448	0.8902411193547758	0.3777204443352211	1.8034823243126068	0.8664179115673162	0.48248348852908574	1.957393818533966	0.5247773877999434	0.4795269167949894	2.0043739703302763	0.14618017249662818	0.478678272142464	2.228213596215186	0.09471796810951895	0.48381904339826987	2.185981837605439	0.08018334484382367	0.5293424696360212	1.9961644984291331	0.05716286620249763	0.4584637989411269	1.7425890265121395	0.8643288178753712	0.2884992408920455	1.6926516943680339	0.5041977129583383	0.30372116316950587	1.6286231486594576	0.11017533443087515	0.32978080906434315	1.8206128454775812	0.03802343961645787	0.30779026322586617	1.7748390912988816	0.023416871314176795	0.25201083357722354	1.5743236778743381	0.029574290903560327	0.3396279969419082	1.6842121495252351	1.593747602088441	0.36357538943286394	1.7448812181349251	1.8386764372347129	0.37245830175683053	1.8747633327059505	1.6712531866864004	0.3539815881180691	1.6526139853737227	1.4653667485535307	0.5522212847354506	1.6341671344360291	1.160507374830387	0.6124080102813076	1.6396272097126092	0.9032125980824214	0.657857006948964	1.704964010829264	1.4758705395600624	0.2092739329373412	1.8049200042423925	1.182263092680133	0.12712080869904302	2.035559199030433	1.0185920996198998	0.14319316695925716
138	4.6	1.8092960464376153	0.8848987350403912	0.38053624555805804	1.8388243093501822	0.8608054952343324	0.48419477971274183	1.9813324614902978	0.5132283756304036	0.4758412992522226	2.0868767991344517	0.13365330537867195	0.48070326604423885	2.312588540194908	0.11237751022475048	0.4894855073069794	2.274738620192689	0.08906688628287295	0.5344249160224629	2.085169504850001	0.040946948152968954	0.4638180668025883	1.7773219099274609	0.8592770059218499	0.2927499313734939	1.7133307305912617	0.5020178938165377	0.30208261601277464	1.6287912710970305	0.11149361739951122	0.3292421134091164	1.824215560454921	0.03870717072314488	0.3068832778523502	1.777927991201122	0.026457029329927616	0.25351017241456625	1.572958681592372	0.03397227849248972	0.3412590792950297	1.717864688427382	1.5886565909600296	0.3676105015956038	1.7769509535184562	1.8291949833843353	0.36914386031526275	1.90595137082718	1.6650598111727581	0.35953163137810584	1.687502575451102	1.4611345504361866	0.5571562912492272	1.6598789701456778	1.1570194076661942	0.6160414061391888	1.65865793767823	0.8998717645089361	0.6629789737748326	1.739020173419477	1.4711547549311836	0.21477960458614317	1.8365012163517234	1.1793093651436517	0.12780150788350927	2.074927592699119	1.0237136763274217	0.1461788586404816
139	4.633333333333334	1.8449248708417283	0.8790613612757843	0.38462009407913983	1.8753308876603798	0.8550291473186569	0.487516020424544	2.0063044870911675	0.5035063564508526	0.4737645811375352	2.150996914864957	0.12439306354932048	0.48083603950363635	2.371961751681459	0.12254773494128172	0.49537329750461545	2.3370857461633054	0.09351997426780051	0.5403230287816377	2.147652447699649	0.0316806669223776	0.46792693694149223	1.8141480901763376	0.8539611599664362	0.29678196114179317	1.7391683648183474	0.49920198305614455	0.30124187513942435	1.6289762453481624	0.1145034566523234	0.328362153890491	1.8271325804575183	0.038569509376991655	0.30667719012252065	1.781179937067084	0.029243262278606363	0.2571898490084601	1.5717325042268762	0.04020478244839676	0.3426177085099115	1.751660714467507	1.5826545951306616	0.37267874634684445	1.8100186289360942	1.8203732115269073	0.36858897188093936	1.9360874442507017	1.660094776204256	0.3643910090509842	1.7227959944413238	1.4552968457958866	0.5629409617977874	1.6900993767935153	1.1514148974665002	0.6202199796901176	1.6841665245870066	0.8945828121874562	0.6685955725342543	1.7732901481664491	1.4650766677302243	0.22137394361782597	1.8669288923995002	1.1737797647454022	0.13046954268763053	2.1045048505731683	1.0226102420129721	0.14679120867520007
140	4.666666666666667	1.8817335632045205	0.8732208217646438	0.3900385764769987	1.9131108927933118	0.8496255324957234	0.4924218695059227	2.03513524340635	0.49579447777462726	0.4740855483403839	2.1965554626852195	0.11600737405536019	0.479432782273455	2.410782886366136	0.12158726757311764	0.4999786196292113	2.3773552263466686	0.08971772036415376	0.5453480195440831	2.1852387645567237	0.026560845493092223	0.4701507823011355	1.8525966354731271	0.8489326515494452	0.30052651187657414	1.7700422160997207	0.49624488402690803	0.30072447348373543	1.6303435909535904	0.12022360519111436	0.3272220597534081	1.82867410903947	0.03748207586188701	0.3069764655038084	1.7841480084869041	0.031235134500402127	0.26222897926401445	1.5712892006588999	0.04917658554775253	0.3435145886428205	1.7856754965017223	1.5762593252447246	0.3786947431638224	1.84336726248634	1.813971997343009	0.3726904764024879	1.964701549151413	1.6569353383788885	0.3677736617224476	1.7582439043174176	1.4483832695620906	0.5692614448787963	1.7248791222246522	1.1440704088832507	0.624963850688248	1.7162625380706917	0.8875041643546999	0.6745269019404461	1.8074143066734907	1.4583115449558226	0.22873735932829664	1.896545704938832	1.1661064881750465	0.13552751849211178	2.1255683188734995	1.0153371957747597	0.14566247930244075
